<svg width="582" height="926" viewBox="0 0 582 926" fill="none" xmlns="http://www.w3.org/2000/svg">
<g filter="url(#filter0_d_238_698)">
<rect x="582" width="924" height="582" rx="12" transform="rotate(90 582 0)" fill="black"/>
</g>
<path d="M63.078 838.045L67.0284 825.096H70.8269L65.2811 842.041H60.9129L56.7725 829.284L52.6322 842.041H48.34L42.7942 825.096H46.7066L50.657 837.968L54.7594 825.096H58.8997L63.078 838.045ZM81.7285 824.673C83.02 824.673 84.2355 824.904 85.337 825.365C86.4386 825.826 87.3882 826.441 88.1859 827.248C88.9835 828.055 89.6293 828.977 90.0851 830.053C90.5409 831.128 90.7688 832.32 90.7688 833.588C90.7688 834.856 90.5409 836.047 90.0851 837.123C89.6293 838.199 88.9835 839.159 88.1859 839.928C87.3882 840.735 86.4386 841.349 85.337 841.81C84.2355 842.272 83.0579 842.502 81.7285 842.502C80.399 842.502 79.2215 842.272 78.1199 841.81C77.0184 841.349 76.0688 840.735 75.2711 839.928C74.4734 839.121 73.8657 838.199 73.4098 837.123C72.954 836.047 72.7261 834.856 72.7261 833.588C72.7261 832.32 72.954 831.128 73.4098 830.053C73.8657 828.977 74.4734 828.016 75.2711 827.248C76.0688 826.441 77.0184 825.826 78.1199 825.365C79.2215 824.904 80.437 824.673 81.7285 824.673V824.673ZM81.7285 828.17C80.9688 828.17 80.2851 828.285 79.6393 828.554C78.9936 828.823 78.4618 829.169 77.968 829.668C77.5122 830.129 77.1323 830.706 76.8664 831.397C76.6005 832.051 76.4486 832.781 76.4486 833.588C76.4486 834.395 76.6005 835.125 76.8664 835.778C77.1323 836.431 77.5122 837.007 77.968 837.507C78.4238 837.968 78.9936 838.352 79.6393 838.621C80.2851 838.89 80.9688 839.005 81.7285 839.005C82.4882 839.005 83.1719 838.89 83.8176 838.621C84.4634 838.352 84.9952 837.968 85.489 837.507C85.9448 837.046 86.3246 836.469 86.5905 835.778C86.8564 835.125 87.0083 834.395 87.0083 833.588C87.0083 832.781 86.8564 832.051 86.5905 831.397C86.3246 830.744 85.9448 830.168 85.489 829.668C85.0331 829.207 84.4634 828.823 83.8176 828.554C83.1719 828.285 82.4882 828.17 81.7285 828.17ZM103.684 824.673C104.253 824.673 104.747 824.712 105.203 824.788C105.659 824.865 106.077 824.981 106.494 825.134L105.621 828.785C105.241 828.592 104.785 828.439 104.291 828.323C103.76 828.208 103.304 828.17 102.848 828.17C102.278 828.17 101.746 828.285 101.253 828.477C100.759 828.669 100.341 828.977 99.9991 829.361C99.6572 829.745 99.3914 830.245 99.1634 830.783C98.9735 831.359 98.8596 831.974 98.8596 832.704V842.003H95.213V825.096H98.8216V827.017C99.3914 826.21 100.075 825.595 100.911 825.25C101.746 824.865 102.658 824.673 103.684 824.673V824.673ZM113.75 842.041H110.065V818.794H113.75V842.041V842.041ZM126.626 824.596C127.842 824.596 128.867 824.827 129.703 825.288C130.577 825.749 131.298 826.364 131.868 827.094V818.794H135.515V842.041H131.868V840.005C131.298 840.773 130.577 841.349 129.703 841.81C128.829 842.272 127.804 842.502 126.626 842.502C125.449 842.502 124.347 842.272 123.36 841.849C122.334 841.388 121.46 840.773 120.701 840.005C119.941 839.198 119.333 838.275 118.915 837.161C118.498 836.085 118.27 834.856 118.27 833.549C118.27 832.243 118.498 831.052 118.915 829.937C119.333 828.861 119.941 827.901 120.701 827.094C121.46 826.287 122.334 825.672 123.36 825.25C124.385 824.827 125.449 824.596 126.626 824.596V824.596ZM127.082 828.17C126.284 828.17 125.601 828.323 124.955 828.592C124.347 828.9 123.815 829.284 123.36 829.745C122.942 830.245 122.6 830.821 122.372 831.474C122.144 832.128 122.03 832.819 122.03 833.588C122.03 834.356 122.144 835.048 122.372 835.701C122.6 836.354 122.942 836.931 123.36 837.43C123.778 837.93 124.309 838.314 124.955 838.583C125.601 838.852 126.284 839.005 127.082 839.005C127.88 839.005 128.526 838.852 129.133 838.583C129.741 838.314 130.273 837.93 130.729 837.43C131.185 836.931 131.526 836.393 131.754 835.701C131.982 835.048 132.134 834.318 132.134 833.549C132.134 832.781 132.02 832.051 131.754 831.397C131.526 830.744 131.147 830.168 130.729 829.668C130.273 829.169 129.741 828.823 129.133 828.516C128.526 828.247 127.842 828.093 127.082 828.093V828.17Z" fill="white"/>
<path d="M479.368 785.979H426.875V880.316H479.368V785.979Z" fill="#FF5F00"/>
<path d="M430.203 833.145C430.195 824.06 432.254 815.092 436.224 806.921C440.195 798.749 445.972 791.588 453.119 785.979C444.268 779.022 433.639 774.696 422.446 773.495C411.252 772.293 399.947 774.265 389.822 779.185C379.696 784.105 371.159 791.775 365.187 801.317C359.214 810.86 356.047 821.89 356.047 833.148C356.047 844.405 359.214 855.436 365.187 864.978C371.159 874.521 379.696 882.19 389.822 887.111C399.947 892.031 411.252 894.003 422.446 892.801C433.639 891.6 444.268 887.273 453.119 880.316C445.972 874.706 440.194 867.544 436.224 859.372C432.254 851.199 430.195 842.231 430.203 833.145V833.145Z" fill="#EB001B"/>
<path d="M550.189 833.144C550.189 844.402 547.022 855.432 541.05 864.975C535.078 874.517 526.541 882.187 516.416 887.107C506.291 892.028 494.985 894 483.792 892.799C472.599 891.598 461.97 887.272 453.119 880.316C460.26 874.701 466.033 867.538 470.003 859.368C473.972 851.197 476.035 842.232 476.035 833.147C476.035 824.063 473.972 815.098 470.003 806.927C466.033 798.757 460.26 791.594 453.119 785.979C461.969 779.021 472.598 774.693 483.791 773.49C494.985 772.288 506.291 774.259 516.416 779.179C526.542 784.099 535.079 791.769 541.052 801.312C547.024 810.856 550.19 821.887 550.189 833.144V833.144ZM544.464 870.321V868.392H545.245V868.026H543.263V868.422H544.038V870.351L544.464 870.321ZM548.315 870.321V868.026H547.714L547.011 869.624L546.314 868.026H545.714V870.351H546.14V868.567L546.795 870.08H547.245L547.9 868.561V870.321H548.315Z" fill="#F79E1B"/>
<rect x="345" y="103" width="120" height="90" rx="3" transform="rotate(90 345 103)" fill="url(#paint0_linear_238_698)"/>
<path d="M353.75 224.333C353.75 224.471 353.862 224.583 354 224.583C354.138 224.583 354.25 224.471 354.25 224.333L353.75 224.333ZM318.242 229L318.242 229.25L318.742 229.25L318.742 229L318.242 229ZM240.629 108.254L240.423 108.112L240.423 108.112L240.629 108.254ZM347.186 103.158L347.251 102.916L347.251 102.916L347.186 103.158ZM318.492 138.778L318.742 138.778L318.742 104.556L318.492 104.556L318.242 104.556L318.242 138.778L318.492 138.778ZM281.115 138.778L281.365 138.778L281.365 104.556L281.115 104.556L280.865 104.556L280.865 138.778L281.115 138.778ZM281.115 191.667L280.865 191.667L280.865 229L281.115 229L281.365 229L281.365 191.667L281.115 191.667ZM354 193.222L353.75 193.222L353.75 224.333L354 224.333L354.25 224.333L354.25 193.222L354 193.222ZM354 163.667L353.75 163.667L353.75 191.667L354 191.667L354.25 191.667L354.25 163.667L354 163.667ZM354 134.111L353.75 134.111L353.75 162.111L354 162.111L354.25 162.111L354.25 134.111L354 134.111ZM352.131 163.667L352.131 163.417L350.262 163.417L350.262 163.667L350.262 163.917L352.131 163.917L352.131 163.667ZM344.656 159L344.906 159L344.906 143.444L344.656 143.444L344.406 143.444L344.406 159L344.656 159ZM339.049 138.778L339.049 138.528L256.82 138.528L256.82 138.778L256.82 139.028L339.049 139.028L339.049 138.778ZM256.82 185.444L256.82 185.694L312.885 185.694L312.885 185.444L312.885 185.194L256.82 185.194L256.82 185.444ZM318.492 190.111L318.242 190.111L318.242 229L318.492 229L318.742 229L318.742 190.111L318.492 190.111ZM256.82 185.444L256.82 185.194C253.816 185.194 251.463 183.176 251.463 180.778L251.213 180.778L250.963 180.778C250.963 183.534 253.63 185.694 256.82 185.694L256.82 185.444ZM256.82 138.778L256.82 138.528C253.63 138.528 250.963 140.688 250.963 143.444L251.213 143.444L251.463 143.444C251.463 141.046 253.816 139.028 256.82 139.028L256.82 138.778ZM344.656 143.444L344.906 143.444C344.906 140.688 342.239 138.528 339.049 138.528L339.049 138.778L339.049 139.028C342.052 139.028 344.406 141.046 344.406 143.444L344.656 143.444ZM312.885 185.444L312.885 185.694C315.889 185.694 318.242 187.713 318.242 190.111L318.492 190.111L318.742 190.111C318.742 187.355 316.075 185.194 312.885 185.194L312.885 185.444ZM350.262 163.667L350.262 163.417C347.259 163.417 344.906 161.398 344.906 159L344.656 159L344.406 159C344.406 161.756 347.073 163.917 350.262 163.917L350.262 163.667ZM251.213 163.667L251.213 163.417L240 163.417L240 163.667L240 163.917L251.213 163.917L251.213 163.667ZM240 222.778L240.25 222.778L240.25 110.324L240 110.324L239.75 110.324L239.75 222.778L240 222.778ZM240.629 108.254L240.834 108.397C241.583 107.318 242.637 106.022 243.817 104.999C245.006 103.969 246.281 103.25 247.475 103.25L247.475 103L247.475 102.75C246.095 102.75 244.703 103.569 243.49 104.621C242.268 105.68 241.187 107.012 240.423 108.112L240.629 108.254ZM247.475 103L247.475 103.25L345.85 103.25L345.85 103L345.85 102.75L247.475 102.75L247.475 103ZM347.186 103.158L347.122 103.399C348.412 103.743 350.084 104.392 351.427 105.369C352.773 106.347 353.75 107.623 353.75 109.222L354 109.222L354.25 109.222C354.25 107.395 353.129 105.988 351.722 104.964C350.312 103.94 348.578 103.27 347.251 102.916L347.186 103.158ZM354 109.222L353.75 109.222L353.75 132.556L354 132.556L354.25 132.556L354.25 109.222L354 109.222ZM345.85 103L345.85 103.25C346.294 103.25 346.712 103.29 347.122 103.399L347.186 103.158L347.251 102.916C346.788 102.793 346.324 102.75 345.85 102.75L345.85 103ZM240 110.324L240.25 110.324C240.25 109.644 240.431 108.978 240.834 108.397L240.629 108.254L240.423 108.112C239.956 108.786 239.75 109.554 239.75 110.324L240 110.324ZM251.213 143.444L250.963 143.444L250.963 180.778L251.213 180.778L251.463 180.778L251.463 143.444L251.213 143.444Z" fill="black"/>
<path d="M476.421 122.719C475.464 122.575 474.453 122.795 473.615 123.421C471.937 124.66 471.585 127.029 472.825 128.707C479.252 137.402 482.793 148.683 482.793 160.477C482.793 172.271 479.252 183.556 472.825 192.255C471.585 193.933 471.937 196.301 473.615 197.541C474.288 198.044 475.077 198.279 475.86 198.279C477.02 198.279 478.161 197.749 478.902 196.751C486.284 186.76 490.353 173.878 490.353 160.477C490.353 147.076 486.284 134.198 478.902 124.211C478.282 123.373 477.378 122.864 476.421 122.719ZM463.707 130.427C462.748 130.301 461.744 130.543 460.916 131.18C459.26 132.451 458.944 134.826 460.215 136.482C464.951 142.651 467.672 151.397 467.672 160.477C467.672 169.535 464.966 178.27 460.244 184.443C458.978 186.099 459.293 188.471 460.953 189.737C461.637 190.262 462.44 190.52 463.242 190.52C464.376 190.52 465.498 190.007 466.247 189.036C472.038 181.464 475.232 171.319 475.232 160.477C475.232 149.605 472.028 139.45 466.21 131.874C465.573 131.047 464.666 130.553 463.707 130.427ZM451.037 137.995C450.072 137.93 449.082 138.236 448.298 138.925C446.725 140.298 446.568 142.684 447.944 144.256C450.786 147.507 452.551 153.722 452.551 160.477C452.551 167.232 450.783 173.447 447.936 176.698C446.564 178.271 446.725 180.657 448.298 182.029C449.016 182.656 449.905 182.967 450.786 182.967C451.841 182.967 452.888 182.533 453.636 181.674C457.688 177.04 460.111 169.111 460.111 160.477C460.111 151.843 457.685 143.914 453.629 139.28C452.941 138.492 452.003 138.06 451.037 137.995ZM437.673 146.065C436.708 146.002 435.721 146.307 434.934 146.995C433.366 148.371 433.207 150.757 434.587 152.326C436.39 154.386 437.43 157.358 437.43 160.477C437.43 163.596 436.39 166.568 434.587 168.628C433.211 170.197 433.373 172.583 434.942 173.959C435.66 174.587 436.545 174.897 437.43 174.897C438.477 174.897 439.528 174.463 440.272 173.612C443.319 170.146 444.99 165.478 444.99 160.477C444.99 155.476 443.319 150.809 440.272 147.342C439.586 146.558 438.639 146.128 437.673 146.065Z" fill="white"/>
<path d="M115.8 594.6C142 594.6 161.2 615.4 161.2 643.8C161.2 672.2 142 693 115.8 693C103.4 693 94.2 688.2 88.8 679.6H88.4L87.2 691H60.8V551H92.8V602.6H93.2C98.8 597.4 106.4 594.6 115.8 594.6ZM110.4 664.6C121.4 664.6 128.8 656.2 128.8 643.8C128.8 631.4 121.4 623 110.4 623C99.4 623 92 631.4 92 643.8C92 656.2 99.4 664.6 110.4 664.6ZM171.597 691V551H203.597V691H171.597ZM314.313 691H287.913L286.713 679.6H286.313C280.913 688.2 271.713 693 259.313 693C233.113 693 213.913 672.2 213.913 643.8C213.913 615.4 233.113 594.6 259.313 594.6C271.713 594.6 280.913 599.4 286.313 608H286.713L287.913 596.6H314.313V691ZM264.713 664.6C275.713 664.6 283.113 656.2 283.113 643.8C283.113 631.4 275.713 623 264.713 623C253.713 623 246.313 631.4 246.313 643.8C246.313 656.2 253.713 664.6 264.713 664.6ZM376.509 594.6C389.309 594.6 397.709 596.4 404.709 600.4V634.2H403.509C397.909 626.6 390.109 623 379.909 623C365.509 623 357.109 630.8 357.109 643.8C357.109 656.8 365.509 664.6 379.909 664.6C390.309 664.6 398.109 660.8 403.509 653.2H404.709V687.4C398.109 691.4 389.509 693 376.509 693C345.709 693 324.709 672.8 324.709 643.8C324.709 614.8 345.709 594.6 376.509 594.6ZM449.659 655V691H417.659V551H449.659V632.6H450.059L476.259 596.6H514.859L477.859 642.6L516.859 691H476.259L450.059 655H449.659Z" fill="white" fill-opacity="0.33"/>
<defs>
<filter id="filter0_d_238_698" x="0" y="0" width="582" height="926" filterUnits="userSpaceOnUse" color-interpolation-filters="sRGB">
<feFlood flood-opacity="0" result="BackgroundImageFix"/>
<feColorMatrix in="SourceAlpha" type="matrix" values="0 0 0 0 0 0 0 0 0 0 0 0 0 0 0 0 0 0 127 0" result="hardAlpha"/>
<feOffset dy="2"/>
<feComposite in2="hardAlpha" operator="out"/>
<feColorMatrix type="matrix" values="0 0 0 0 0 0 0 0 0 0 0 0 0 0 0 0 0 0 0.8 0"/>
<feBlend mode="normal" in2="BackgroundImageFix" result="effect1_dropShadow_238_698"/>
<feBlend mode="normal" in="SourceGraphic" in2="effect1_dropShadow_238_698" result="shape"/>
</filter>
<linearGradient id="paint0_linear_238_698" x1="461.911" y1="104.431" x2="348.602" y2="192.66" gradientUnits="userSpaceOnUse">
<stop stop-color="#D9D9D9"/>
<stop offset="0.347245" stop-color="#B0B0B0"/>
<stop offset="0.524405" stop-color="#CECECE"/>
<stop offset="0.776262" stop-color="#BCBCBC"/>
<stop offset="1" stop-color="#A2A2A2"/>
</linearGradient>
</defs>
</svg>
