<svg width="32" height="32" viewBox="0 0 32 32" fill="none" xmlns="http://www.w3.org/2000/svg">
<path d="M15.081 14.969C15.486 14.969 15.814 15.297 15.814 15.702C15.814 16.107 15.486 16.435 15.081 16.435H4.28202C4.11002 16.435 3.96602 16.579 3.96602 16.751V24.031C3.96602 24.203 4.11002 24.347 4.28202 24.347H21.771C22.176 24.347 22.504 24.675 22.504 25.08C22.504 25.485 22.176 25.813 21.771 25.813H4.28202C3.29902 25.813 2.49902 25.012 2.49902 24.03V16.75C2.49902 15.768 3.29902 14.967 4.28202 14.967L15.081 14.969ZM19.506 6.12701C21.091 4.54301 23.593 4.41701 25.076 5.89901L26.016 6.83901C26.302 7.12501 26.302 7.59001 26.016 7.87601C25.73 8.16201 25.265 8.16201 24.979 7.87601L24.039 6.93601C23.154 6.05101 21.577 6.13001 20.543 7.16401C19.509 8.19801 19.43 9.77401 20.315 10.66L21.039 11.384L26.911 11.385C28.337 11.385 29.5 12.549 29.5 13.974V20C29.5 21.426 28.336 22.589 26.911 22.589H20.157C18.731 22.589 17.568 21.425 17.568 20V13.974C17.568 12.898 18.231 11.97 19.17 11.581C17.803 10.088 17.962 7.67201 19.505 6.12701H19.506ZM7.20602 18.052C7.50102 18.052 7.73902 18.291 7.73902 18.585L7.73802 19.538L8.52102 19.247C8.76302 19.157 9.02802 19.253 9.15902 19.464L9.20702 19.561C9.31002 19.837 9.16902 20.144 8.89302 20.247L8.07002 20.553L8.77102 21.239C8.95502 21.419 8.98102 21.7 8.84602 21.909L8.77902 21.993C8.57302 22.203 8.23502 22.207 8.02502 22.001L7.20102 21.195L6.38502 21.996C6.20102 22.176 5.91902 22.196 5.71402 22.057L5.63102 21.988C5.42502 21.778 5.42902 21.44 5.63902 21.234L6.32502 20.562L5.45702 20.25C5.21402 20.163 5.07402 19.918 5.10902 19.673L5.13502 19.568C5.23502 19.291 5.54002 19.147 5.81702 19.246L6.67102 19.552L6.67202 18.586C6.67202 18.328 6.85502 18.113 7.09802 18.063L7.20602 18.052ZM11.534 18.052C11.829 18.052 12.067 18.291 12.067 18.585L12.066 19.538L12.849 19.247C13.091 19.157 13.356 19.253 13.487 19.464L13.535 19.561C13.638 19.837 13.497 20.144 13.221 20.247L12.398 20.553L13.099 21.239C13.283 21.419 13.309 21.7 13.174 21.909L13.107 21.993C12.901 22.203 12.563 22.207 12.353 22.001L11.529 21.195L10.713 21.996C10.529 22.176 10.247 22.196 10.042 22.057L9.95902 21.988C9.75302 21.778 9.75702 21.44 9.96702 21.234L10.653 20.562L9.78502 20.25C9.54202 20.163 9.40202 19.918 9.43702 19.673L9.46302 19.568C9.56302 19.291 9.86802 19.147 10.145 19.246L10.999 19.552L11 18.586C11 18.328 11.183 18.113 11.426 18.063L11.534 18.052ZM26.912 12.851H20.158C19.542 12.851 19.035 13.358 19.035 13.974V20C19.035 20.616 19.542 21.123 20.158 21.123H26.912C27.528 21.123 28.035 20.616 28.035 20V13.974C28.035 13.358 27.528 12.851 26.912 12.851ZM23.535 15.773C24.206 15.773 24.749 16.317 24.749 16.987C24.749 17.657 24.205 18.201 23.535 18.201C22.864 18.201 22.32 17.658 22.32 16.987C22.32 16.316 22.864 15.773 23.535 15.773Z" fill="#03FF94"/>
</svg>
