<svg width="30" height="30" viewBox="0 0 30 30" fill="none" xmlns="http://www.w3.org/2000/svg">
<path fill-rule="evenodd" clip-rule="evenodd" d="M16.945 15.0002L29.597 2.34804C30.1343 1.81066 30.1343 0.939492 29.597 0.403032C29.0596 -0.134344 28.1894 -0.134344 27.652 0.403032L15 13.0552L2.34801 0.403032C1.81064 -0.134344 0.940394 -0.134344 0.403026 0.403032C-0.134342 0.939492 -0.134342 1.81066 0.403026 2.34804L13.055 15.0002L0.403026 27.6524C-0.134342 28.1889 -0.134342 29.061 0.403026 29.5974C0.67171 29.8661 1.02384 30 1.37506 30C1.72719 30 2.07932 29.8661 2.34801 29.5974L15 16.9452L27.652 29.5974C27.9207 29.8661 28.2728 30 28.624 30C28.9762 30 29.3283 29.8661 29.597 29.5974C30.1343 29.061 30.1343 28.1889 29.597 27.6524L16.945 15.0002Z" fill="white"/>
</svg>
