<svg width="32" height="32" viewBox="0 0 32 32" fill="none" xmlns="http://www.w3.org/2000/svg">
<circle cx="16" cy="16" r="16" fill="#2A2A2A"/>
<g clip-path="url(#clip0_230_990)">
<path d="M11.616 13.6722L19.388 22.9302C19.6423 23.2321 19.9978 23.4311 20.388 23.4902V18.1102L12.614 9.22623C12.3561 8.93269 12.0011 8.74174 11.614 8.68823L11.616 13.6722Z" fill="#03FF94"/>
<path d="M11.616 18.3361V8.68805C11.403 8.65581 11.1857 8.66608 10.9766 8.71825C10.7676 8.77043 10.5709 8.86348 10.398 8.99205L8.68402 10.2681C8.47944 10.4207 8.31328 10.6189 8.19871 10.847C8.08414 11.0751 8.02432 11.3268 8.02401 11.5821L8.00802 18.3381V21.712C7.99957 21.9545 8.04181 22.1961 8.13204 22.4213C8.22227 22.6466 8.3585 22.8505 8.53202 23.0201C8.78471 23.2809 9.1104 23.4592 9.46631 23.5316C9.82221 23.6039 10.1917 23.5669 10.5262 23.4254C10.8606 23.2839 11.1445 23.0446 11.3404 22.7388C11.5364 22.433 11.6352 22.0751 11.624 21.712L11.616 18.3361Z" fill="white"/>
<path d="M20.386 13.8441V23.4921C20.5988 23.5241 20.8157 23.5137 21.0244 23.4615C21.2331 23.4093 21.4294 23.3164 21.602 23.1881L23.312 21.9121C23.5165 21.7598 23.6826 21.5619 23.7971 21.3341C23.9117 21.1064 23.9716 20.8551 23.972 20.6001L23.988 13.8421H24V10.4701C24.0085 10.2272 23.9661 9.98511 23.8755 9.75951C23.7849 9.53392 23.6482 9.32975 23.474 9.16011C23.221 8.90056 22.8955 8.72347 22.5401 8.65202C22.1847 8.58056 21.816 8.61807 21.4823 8.75964C21.1486 8.90121 20.8654 9.14024 20.6698 9.44543C20.4742 9.75063 20.3753 10.1078 20.386 10.4701V13.8441Z" fill="white"/>
<path d="M12.602 14.8522L11.614 13.6742V8.69019L12.602 14.8522Z" fill="#009E5C"/>
<path d="M19.396 16.978L20.386 18.11V23.492L19.396 16.978Z" fill="#009E5C"/>
</g>
<defs>
<clipPath id="clip0_230_990">
<rect width="16" height="16" fill="white" transform="translate(8 8)"/>
</clipPath>
</defs>
</svg>
