<svg width="562" height="130" viewBox="0 0 562 130" fill="none" xmlns="http://www.w3.org/2000/svg">
<path d="M561.161 127.98H537.401L536.321 117.72H535.961C531.101 125.46 522.821 129.78 511.661 129.78C488.081 129.78 470.801 111.06 470.801 85.5C470.801 59.94 488.081 41.22 511.661 41.22C522.821 41.22 531.101 45.54 535.961 53.28H536.321L537.401 43.02H561.161V127.98ZM516.521 104.22C526.421 104.22 533.081 96.66 533.081 85.5C533.081 74.34 526.421 66.78 516.521 66.78C506.621 66.78 499.961 74.34 499.961 85.5C499.961 96.66 506.621 104.22 516.521 104.22Z" fill="white"/>
<path d="M441.717 0C451.797 0 458.817 7.02 458.817 17.1C458.817 27.18 451.797 34.2 441.717 34.2C431.637 34.2 424.617 27.18 424.617 17.1C424.617 7.02 431.637 0 441.717 0ZM427.317 127.98V43.02H456.117V127.98H427.317Z" fill="white"/>
<path d="M384.882 41.22C396.402 41.22 403.962 42.84 410.262 46.44V76.86H409.182C404.142 70.02 397.122 66.78 387.942 66.78C374.982 66.78 367.422 73.8 367.422 85.5C367.422 97.2 374.982 104.22 387.942 104.22C397.302 104.22 404.322 100.8 409.182 93.96H410.262V124.74C404.322 128.34 396.582 129.78 384.882 129.78C357.162 129.78 338.262 111.6 338.262 85.5C338.262 59.4 357.162 41.22 384.882 41.22Z" fill="white"/>
<path d="M309.178 0C319.258 0 326.278 7.02 326.278 17.1C326.278 27.18 319.258 34.2 309.178 34.2C299.098 34.2 292.078 27.18 292.078 17.1C292.078 7.02 299.098 0 309.178 0ZM294.778 127.98V43.02H323.578V127.98H294.778Z" fill="white"/>
<path d="M279.245 99.5399V127.08C274.925 128.88 269.525 129.78 261.785 129.78C239.465 129.78 227.945 118.08 227.945 95.0399V67.4999H214.805V43.0199H228.845L232.265 18.8999H256.745V43.0199H279.065V67.4999H256.745V93.9599C256.745 100.62 260.345 104.22 266.645 104.22C270.785 104.22 274.385 103.32 278.165 99.5399H279.245Z" fill="#03FF94"/>
<path d="M172.184 41.22C192.344 41.22 204.224 54.36 204.224 77.04V127.98H175.424V80.46C175.424 71.46 171.284 66.78 164.264 66.78C155.984 66.78 151.664 72 151.664 82.08V127.98H122.864V43.02H146.624L147.704 53.64H148.064C152.924 45.54 161.204 41.22 172.184 41.22Z" fill="white"/>
<path d="M89.1 34.2C79.02 34.2 72 27.18 72 17.1C72 7.02 79.02 0 89.1 0C99.18 0 106.2 7.02 106.2 17.1C106.2 27.18 99.18 34.2 89.1 34.2ZM74.7 127.98V67.5H41.94V127.98H13.14V67.5H0V43.02H13.14V35.28C13.14 12.78 25.2 0.179997 46.98 0.179997C54 0.179997 59.94 1.08 64.26 2.87999V28.98H63.18C59.22 26.64 54.72 25.74 51.66 25.74C45.72 25.74 41.94 29.52 41.94 36.36V43.02H103.5V127.98H74.7Z" fill="white"/>
</svg>
