<svg width="24" height="24" viewBox="0 0 24 24" fill="none" xmlns="http://www.w3.org/2000/svg">
<path d="M17.4698 13.518C18.545 13.5185 19.5761 13.9455 20.3369 14.7054C21.0976 15.4652 21.5259 16.4958 21.5278 17.571C21.5277 18.3637 21.2952 19.139 20.859 19.8009C20.4227 20.4629 19.802 20.9823 19.0735 21.295C18.3451 21.6077 17.5409 21.6999 16.7606 21.5602C15.9802 21.4205 15.258 21.055 14.6833 20.509C14.1085 19.963 13.7066 19.2605 13.5271 18.4883C13.3476 17.7162 13.3984 16.9084 13.6734 16.1648C13.9484 15.4213 14.4353 14.7748 15.074 14.3052C15.7127 13.8356 16.4751 13.5637 17.2668 13.523L17.4698 13.518ZM17.4778 14.326C17.0517 14.3254 16.6296 14.4087 16.2356 14.5713C15.8417 14.7338 15.4837 14.9723 15.1819 15.2732C14.5725 15.881 14.2295 16.7059 14.2283 17.5665C14.2271 18.4271 14.5678 19.253 15.1756 19.8624C15.7833 20.4718 16.6082 20.8148 17.4688 20.816C18.33 20.816 19.156 20.4743 19.7655 19.8659C20.375 19.2575 20.7182 18.4322 20.7198 17.571C20.7198 16.7109 20.3783 15.886 19.7704 15.2775C19.1625 14.669 18.3379 14.3268 17.4778 14.326ZM18.9328 15.976C19.0046 15.9111 19.0985 15.8763 19.1953 15.8788C19.292 15.8813 19.384 15.9209 19.4524 15.9894C19.5207 16.0579 19.5601 16.15 19.5624 16.2467C19.5647 16.3434 19.5298 16.4373 19.4648 16.509L16.8928 19.081C16.7702 19.2034 16.604 19.2721 16.4308 19.2721C16.2576 19.2721 16.0914 19.2034 15.9688 19.081L15.0568 18.168C14.9921 18.0961 14.9575 18.002 14.9601 17.9053C14.9628 17.8086 15.0025 17.7166 15.0712 17.6484C15.1398 17.5802 15.232 17.541 15.3287 17.5388C15.4254 17.5367 15.5193 17.5718 15.5908 17.637L16.4308 18.477L18.9328 15.976ZM11.5868 10.811C12.1638 11.254 12.5118 11.997 12.6508 13.082C12.7368 13.755 13.2718 14.142 13.8498 14.247C13.6048 14.511 13.3898 14.802 13.2068 15.115C12.4308 14.833 11.7748 14.199 11.6478 13.211C11.5468 12.417 11.3178 11.879 10.9708 11.612C10.6858 11.392 10.2968 11.33 9.70679 11.409C9.33679 11.459 9.01479 11.644 8.79779 11.934C8.59779 12.202 8.50179 12.537 8.52379 12.889L8.53979 13.042L8.55879 13.165C8.73179 14.333 9.08779 16.722 12.5228 17.769L12.5208 17.66L12.5308 17.962C12.5488 18.268 12.5948 18.567 12.6658 18.855L12.6128 18.845C8.30979 17.714 7.75979 14.654 7.57179 13.399L7.55879 13.314L7.54079 13.195C7.48649 12.8696 7.49817 12.5367 7.57513 12.216C7.65209 11.8952 7.79277 11.5933 7.98879 11.328C8.36979 10.82 8.93279 10.492 9.57379 10.407C10.1178 10.334 10.9188 10.297 11.5868 10.811ZM9.36979 8.47998C11.4878 8.15298 13.3928 9.13498 14.2258 10.983C14.2848 11.117 14.7748 12.274 14.6858 13.223C14.6797 13.289 14.6606 13.3532 14.6297 13.4119C14.5988 13.4706 14.5566 13.5226 14.5056 13.565C14.4546 13.6074 14.3957 13.6394 14.3323 13.659C14.269 13.6786 14.2023 13.6856 14.1363 13.6795C14.0702 13.6734 14.006 13.6543 13.9473 13.6234C13.8887 13.5925 13.8366 13.5503 13.7942 13.4993C13.7518 13.4483 13.7199 13.3894 13.7003 13.326C13.6807 13.2626 13.6737 13.196 13.6798 13.13C13.7348 12.542 13.4258 11.676 13.3018 11.392C12.5258 9.67098 10.7818 9.28498 9.52379 9.47798C8.27379 9.67098 6.74079 10.533 6.52979 12.326C6.12979 15.718 8.82079 17.893 8.84779 17.915C8.95282 17.9981 9.02051 18.1196 9.03599 18.2526C9.05146 18.3857 9.01344 18.5195 8.93029 18.6245C8.84715 18.7295 8.72569 18.7972 8.59263 18.8127C8.45957 18.8281 8.32582 18.7901 8.22079 18.707C8.09079 18.605 5.06079 16.154 5.52679 12.208C5.75079 10.298 7.29679 8.79998 9.36979 8.47998ZM10.5558 12.882C10.5588 12.899 10.8158 14.594 12.1258 15.536C12.3428 15.692 12.5768 15.819 12.8288 15.918C12.7112 16.2365 12.6268 16.5662 12.5768 16.902C12.2022 16.7691 11.8486 16.5832 11.5268 16.35C9.86479 15.15 9.56679 13.108 9.55479 13.021C9.53636 12.8882 9.57142 12.7536 9.65224 12.6467C9.73307 12.5398 9.85305 12.4694 9.98579 12.451C10.1185 12.4326 10.2532 12.4676 10.3601 12.5484C10.467 12.6293 10.5374 12.7492 10.5558 12.882ZM14.0068 7.73798L14.0558 7.77198C14.2538 7.90698 16.5318 9.52198 16.6508 12.562L16.6538 12.698C16.3004 12.7604 15.955 12.8617 15.6238 13C15.6408 12.88 15.6468 12.747 15.6408 12.602C15.5398 10.02 13.5048 8.61998 13.4848 8.60598C13.3248 8.48598 10.1558 6.13098 6.56979 8.60198C5.09279 9.61998 4.38979 11.147 4.47579 13.14C4.52564 14.1055 4.73199 15.0566 5.08679 15.956C5.13425 16.0778 5.13271 16.2133 5.08251 16.334C5.0323 16.4547 4.93731 16.5513 4.81746 16.6035C4.69761 16.6557 4.5622 16.6596 4.4396 16.6142C4.31699 16.5688 4.21672 16.4777 4.15979 16.36C4.13579 16.303 1.75379 10.694 5.99579 7.76998C9.89479 5.08298 13.4788 7.36998 14.0068 7.73798ZM10.0738 4.55598C15.1558 4.55598 17.3988 8.36098 17.4908 8.52298C17.5481 8.63844 17.5592 8.77141 17.5217 8.89476C17.4843 9.0181 17.4013 9.12252 17.2895 9.1867C17.1777 9.25089 17.0457 9.26999 16.9203 9.24013C16.7949 9.21026 16.6856 9.13367 16.6148 9.02598C16.5328 8.88598 14.5548 5.56598 10.0738 5.56598C5.56979 5.56598 3.53379 8.99298 3.51379 9.02798C3.48107 9.08632 3.43707 9.13758 3.38437 9.17878C3.33167 9.21998 3.27131 9.2503 3.20679 9.26797C3.14227 9.28564 3.07489 9.29032 3.00854 9.28174C2.9422 9.27315 2.87823 9.25147 2.82034 9.21796C2.76244 9.18444 2.71179 9.13976 2.67131 9.0865C2.63083 9.03324 2.60134 8.97247 2.58454 8.90772C2.56774 8.84297 2.56398 8.77553 2.57346 8.70931C2.58295 8.64309 2.6055 8.57941 2.63979 8.52198C2.73279 8.35998 4.99279 4.55598 10.0738 4.55598ZM5.54379 3.66998C7.10179 2.91298 11.0548 1.50598 15.2698 4.03998C15.3848 4.10894 15.4676 4.22074 15.5002 4.3508C15.5327 4.48086 15.5122 4.61851 15.4433 4.73348C15.3743 4.84845 15.2625 4.93132 15.1325 4.96386C15.0024 4.9964 14.8648 4.97594 14.7498 4.90698C9.96579 2.02998 5.44279 4.86998 5.39779 4.89898C5.34198 4.9349 5.27964 4.95947 5.21433 4.9713C5.14903 4.98312 5.08203 4.98196 5.01717 4.9679C4.95231 4.95383 4.89085 4.92712 4.83631 4.8893C4.78177 4.85149 4.73521 4.80329 4.69929 4.74748C4.62676 4.63477 4.60197 4.49785 4.63038 4.36686C4.65879 4.23586 4.73808 4.12152 4.85079 4.04898C5.01407 3.94705 5.18191 3.85262 5.35379 3.76598L5.54379 3.66998Z" fill="#03FF94"/>
</svg>
