<svg width="24" height="24" viewBox="0 0 24 24" fill="none" xmlns="http://www.w3.org/2000/svg">
<path fill-rule="evenodd" clip-rule="evenodd" d="M15.2941 1.83099C16.3341 1.83099 17.1801 2.67699 17.1801 3.71799V7.11999H17.9661C18.5672 7.12052 19.1436 7.35951 19.5688 7.78451C19.994 8.20951 20.2333 8.78582 20.2341 9.38699V12.301C20.2335 12.9023 19.9944 13.4789 19.5692 13.9041C19.144 14.3293 18.5674 14.5685 17.9661 14.569H17.1801V20.339C17.1791 20.8134 16.9997 21.2701 16.6775 21.6184C16.3553 21.9667 15.914 22.1811 15.4411 22.219L15.2941 22.225H7.46805C6.47805 22.225 5.66205 21.457 5.58805 20.485L5.58105 20.338V3.71799C5.58105 2.72699 6.34905 1.91199 7.32105 1.83799L7.46805 1.83099H15.2941ZM16.1461 18.667H6.61606V20.338C6.61606 20.808 6.99805 21.191 7.46805 21.191H15.2941C15.7641 21.191 16.1461 20.809 16.1461 20.338V18.667ZM11.3811 19.117C11.5868 19.1163 11.7851 19.1942 11.9353 19.3348C12.0855 19.4754 12.1764 19.668 12.1893 19.8734C12.2022 20.0788 12.1362 20.2813 12.0047 20.4396C11.8732 20.5979 11.6863 20.7 11.4821 20.725L11.3811 20.731C11.1718 20.7236 10.9736 20.6353 10.8282 20.4847C10.6827 20.3341 10.6015 20.1329 10.6015 19.9235C10.6015 19.7141 10.6827 19.5129 10.8282 19.3623C10.9736 19.2117 11.1718 19.1234 11.3811 19.116V19.117ZM16.1461 5.95699H6.61606V17.633H16.1461V14.75L12.4241 16.671C12.3419 16.7132 12.25 16.7327 12.1577 16.7274C12.0655 16.7221 11.9764 16.6923 11.8996 16.641C11.8228 16.5897 11.7611 16.5188 11.7209 16.4356C11.6807 16.3524 11.6635 16.26 11.6711 16.168L11.6861 16.084L12.0741 14.569H11.2541C10.6798 14.5681 10.1272 14.3496 9.70769 13.9575C9.28813 13.5654 9.03277 13.0289 8.99305 12.456L8.98805 12.301V9.38699C8.98869 8.81273 9.20694 8.26005 9.59885 7.84031C9.99076 7.42057 10.5272 7.16496 11.1001 7.12499L11.2551 7.11999H16.1461V5.95799V5.95699ZM17.9661 8.15399H11.2551C10.5751 8.15399 10.0221 8.70699 10.0221 9.38699V12.301C10.0221 12.981 10.5751 13.534 11.2551 13.534H12.7401C12.819 13.5337 12.897 13.5516 12.968 13.5863C13.039 13.6209 13.101 13.6714 13.1494 13.7338C13.1978 13.7962 13.2313 13.8689 13.2472 13.9462C13.263 14.0236 13.261 14.1036 13.2411 14.18L12.9741 15.224L16.1341 13.592C16.1827 13.5669 16.235 13.5497 16.2891 13.541L16.3711 13.534H17.9661C18.6461 13.534 19.2001 12.981 19.2001 12.301V9.38699C19.2001 8.70699 18.6471 8.15399 17.9661 8.15399ZM15.2941 2.86599H7.46805C7.24217 2.86626 7.02562 2.95611 6.86589 3.11583C6.70617 3.27555 6.61632 3.49211 6.61606 3.71799V4.92399H16.1461V3.71799C16.1458 3.49211 16.0559 3.27555 15.8962 3.11583C15.7365 2.95611 15.5199 2.86626 15.2941 2.86599ZM12.3821 3.62799C12.4671 3.62799 12.5401 3.70499 12.5621 3.80899L12.5681 3.87499V3.95199C12.5681 4.06599 12.5101 4.16199 12.4311 4.18999L12.3811 4.19999H10.3811C10.2941 4.19999 10.2211 4.12199 10.2001 4.01799L10.1931 3.95199V3.87499C10.1931 3.76199 10.2521 3.66499 10.3311 3.63699L10.3811 3.62799H12.3811H12.3821Z" fill="#03FF94"/>
</svg>
