<svg width="582" height="926" viewBox="0 0 582 926" fill="none" xmlns="http://www.w3.org/2000/svg">
<g filter="url(#filter0_d_238_700)">
<rect x="582" width="924" height="582" rx="12" transform="rotate(90 582 0)" fill="#4A5FA4"/>
</g>
<path d="M63.0778 838.045L67.0282 825.096H70.8266L65.2809 842.041H60.9126L56.7723 829.284L52.632 842.041H48.3397L42.7939 825.096H46.7064L50.6568 837.968L54.7591 825.096H58.8994L63.0778 838.045ZM81.7282 824.673C83.0197 824.673 84.2352 824.904 85.3368 825.365C86.4383 825.826 87.3879 826.441 88.1856 827.248C88.9833 828.055 89.629 828.977 90.0849 830.053C90.5407 831.128 90.7686 832.32 90.7686 833.588C90.7686 834.856 90.5407 836.047 90.0849 837.123C89.629 838.199 88.9833 839.159 88.1856 839.928C87.3879 840.735 86.4383 841.349 85.3368 841.81C84.2352 842.272 83.0577 842.502 81.7282 842.502C80.3988 842.502 79.2212 842.272 78.1197 841.81C77.0181 841.349 76.0685 840.735 75.2708 839.928C74.4732 839.121 73.8654 838.199 73.4096 837.123C72.9538 836.047 72.7259 834.856 72.7259 833.588C72.7259 832.32 72.9538 831.128 73.4096 830.053C73.8654 828.977 74.4732 828.016 75.2708 827.248C76.0685 826.441 77.0181 825.826 78.1197 825.365C79.2212 824.904 80.4368 824.673 81.7282 824.673V824.673ZM81.7282 828.17C80.9685 828.17 80.2848 828.285 79.6391 828.554C78.9933 828.823 78.4616 829.169 77.9678 829.668C77.5119 830.129 77.1321 830.706 76.8662 831.397C76.6003 832.051 76.4484 832.781 76.4484 833.588C76.4484 834.395 76.6003 835.125 76.8662 835.778C77.1321 836.431 77.5119 837.007 77.9678 837.507C78.4236 837.968 78.9933 838.352 79.6391 838.621C80.2848 838.89 80.9685 839.005 81.7282 839.005C82.4879 839.005 83.1717 838.89 83.8174 838.621C84.4631 838.352 84.9949 837.968 85.4887 837.507C85.9445 837.046 86.3244 836.469 86.5903 835.778C86.8562 835.125 87.0081 834.395 87.0081 833.588C87.0081 832.781 86.8562 832.051 86.5903 831.397C86.3244 830.744 85.9445 830.168 85.4887 829.668C85.0329 829.207 84.4631 828.823 83.8174 828.554C83.1717 828.285 82.4879 828.17 81.7282 828.17ZM103.683 824.673C104.253 824.673 104.747 824.712 105.203 824.788C105.659 824.865 106.076 824.981 106.494 825.134L105.621 828.785C105.241 828.592 104.785 828.439 104.291 828.323C103.759 828.208 103.304 828.17 102.848 828.17C102.278 828.17 101.746 828.285 101.252 828.477C100.759 828.669 100.341 828.977 99.9989 829.361C99.657 829.745 99.3911 830.245 99.1632 830.783C98.9733 831.359 98.8593 831.974 98.8593 832.704V842.003H95.2128V825.096H98.8213V827.017C99.3911 826.21 100.075 825.595 100.91 825.25C101.746 824.865 102.658 824.673 103.683 824.673V824.673ZM113.749 842.041H110.065V818.794H113.749V842.041V842.041ZM126.626 824.596C127.842 824.596 128.867 824.827 129.703 825.288C130.577 825.749 131.298 826.364 131.868 827.094V818.794H135.515V842.041H131.868V840.005C131.298 840.773 130.577 841.349 129.703 841.81C128.829 842.272 127.804 842.502 126.626 842.502C125.449 842.502 124.347 842.272 123.359 841.849C122.334 841.388 121.46 840.773 120.701 840.005C119.941 839.198 119.333 838.275 118.915 837.161C118.497 836.085 118.269 834.856 118.269 833.549C118.269 832.243 118.497 831.052 118.915 829.937C119.333 828.861 119.941 827.901 120.701 827.094C121.46 826.287 122.334 825.672 123.359 825.25C124.385 824.827 125.449 824.596 126.626 824.596V824.596ZM127.082 828.17C126.284 828.17 125.601 828.323 124.955 828.592C124.347 828.9 123.815 829.284 123.359 829.745C122.942 830.245 122.6 830.821 122.372 831.474C122.144 832.128 122.03 832.819 122.03 833.588C122.03 834.356 122.144 835.048 122.372 835.701C122.6 836.354 122.942 836.931 123.359 837.43C123.777 837.93 124.309 838.314 124.955 838.583C125.601 838.852 126.284 839.005 127.082 839.005C127.88 839.005 128.525 838.852 129.133 838.583C129.741 838.314 130.273 837.93 130.728 837.43C131.184 836.931 131.526 836.393 131.754 835.701C131.982 835.048 132.134 834.318 132.134 833.549C132.134 832.781 132.02 832.051 131.754 831.397C131.526 830.744 131.146 830.168 130.728 829.668C130.273 829.169 129.741 828.823 129.133 828.516C128.525 828.247 127.842 828.093 127.082 828.093V828.17Z" fill="black"/>
<path d="M479.368 785.979H426.875V880.316H479.368V785.979Z" fill="#FF5F00"/>
<path d="M430.203 833.145C430.195 824.06 432.254 815.092 436.224 806.921C440.194 798.749 445.972 791.588 453.119 785.979C444.268 779.022 433.639 774.696 422.445 773.495C411.252 772.293 399.947 774.265 389.821 779.185C379.696 784.105 371.159 791.775 365.186 801.317C359.214 810.86 356.046 821.89 356.046 833.148C356.046 844.405 359.214 855.436 365.186 864.978C371.159 874.521 379.696 882.19 389.821 887.111C399.947 892.031 411.252 894.003 422.445 892.801C433.639 891.6 444.268 887.273 453.119 880.316C445.972 874.706 440.194 867.544 436.224 859.372C432.254 851.199 430.195 842.231 430.203 833.145V833.145Z" fill="#EB001B"/>
<path d="M550.189 833.144C550.189 844.402 547.022 855.432 541.05 864.975C535.077 874.517 526.541 882.187 516.415 887.107C506.29 892.028 494.985 894 483.792 892.799C472.599 891.598 461.969 887.272 453.119 880.316C460.26 874.701 466.033 867.538 470.002 859.368C473.972 851.197 476.035 842.232 476.035 833.147C476.035 824.063 473.972 815.098 470.002 806.927C466.033 798.757 460.26 791.594 453.119 785.979C461.968 779.021 472.598 774.693 483.791 773.49C494.984 772.288 506.29 774.259 516.416 779.179C526.542 784.099 535.079 791.769 541.051 801.312C547.024 810.856 550.19 821.887 550.189 833.144V833.144ZM544.464 870.321V868.392H545.245V868.026H543.263V868.422H544.038V870.351L544.464 870.321ZM548.314 870.321V868.026H547.714L547.011 869.624L546.314 868.026H545.714V870.351H546.14V868.567L546.795 870.08H547.245L547.9 868.561V870.321H548.314Z" fill="#F79E1B"/>
<rect x="390.853" y="102.706" width="118.597" height="89.6965" rx="3" transform="rotate(90 390.853 102.706)" fill="url(#paint0_linear_238_700)"/>
<path d="M476.421 122.719C475.464 122.575 474.453 122.795 473.615 123.421C471.937 124.66 471.585 127.029 472.825 128.707C479.252 137.402 482.793 148.683 482.793 160.477C482.793 172.271 479.252 183.556 472.825 192.255C471.585 193.933 471.937 196.301 473.615 197.541C474.288 198.044 475.077 198.279 475.86 198.279C477.02 198.279 478.161 197.749 478.902 196.751C486.284 186.76 490.353 173.878 490.353 160.477C490.353 147.076 486.284 134.198 478.902 124.211C478.282 123.373 477.378 122.864 476.421 122.719ZM463.707 130.427C462.748 130.301 461.744 130.543 460.916 131.18C459.26 132.451 458.944 134.826 460.215 136.482C464.951 142.651 467.672 151.397 467.672 160.477C467.672 169.535 464.966 178.27 460.244 184.443C458.978 186.099 459.293 188.471 460.953 189.737C461.637 190.262 462.44 190.52 463.242 190.52C464.376 190.52 465.498 190.007 466.247 189.036C472.038 181.464 475.232 171.319 475.232 160.477C475.232 149.605 472.028 139.45 466.21 131.874C465.573 131.047 464.666 130.553 463.707 130.427ZM451.037 137.995C450.072 137.93 449.082 138.236 448.298 138.925C446.725 140.298 446.568 142.684 447.944 144.256C450.786 147.507 452.551 153.722 452.551 160.477C452.551 167.232 450.783 173.447 447.936 176.698C446.564 178.271 446.725 180.657 448.298 182.029C449.016 182.656 449.905 182.967 450.786 182.967C451.841 182.967 452.888 182.533 453.636 181.674C457.688 177.04 460.111 169.111 460.111 160.477C460.111 151.843 457.685 143.914 453.629 139.28C452.941 138.492 452.003 138.06 451.037 137.995ZM437.673 146.065C436.708 146.002 435.721 146.307 434.934 146.995C433.366 148.371 433.207 150.757 434.587 152.326C436.39 154.386 437.43 157.358 437.43 160.477C437.43 163.596 436.39 166.568 434.587 168.628C433.211 170.197 433.373 172.583 434.942 173.959C435.66 174.587 436.545 174.897 437.43 174.897C438.477 174.897 439.528 174.463 440.272 173.612C443.319 170.146 444.99 165.478 444.99 160.477C444.99 155.476 443.319 150.809 440.272 147.342C439.586 146.558 438.639 146.128 437.673 146.065Z" fill="black"/>
<path d="M111.22 500.24C134.8 500.24 152.08 518.96 152.08 544.52C152.08 570.08 134.8 588.8 111.22 588.8C102.76 588.8 95.92 586.28 90.88 581.6H90.52V621.2H61.72V502.04H85.48L86.56 512.3H86.92C91.78 504.56 100.06 500.24 111.22 500.24ZM106.36 563.24C116.26 563.24 122.92 555.68 122.92 544.52C122.92 533.36 116.26 525.8 106.36 525.8C96.46 525.8 89.8 533.36 89.8 544.52C89.8 555.68 96.46 563.24 106.36 563.24ZM211.297 500.24C216.517 500.24 221.197 501.5 223.537 503.48V531.38H222.457C219.037 529.04 214.177 527.6 208.957 527.6C195.817 527.6 190.237 534.98 190.237 551.9V587H161.437V502.04H185.197L186.637 515.54H186.997C191.497 505.28 199.237 500.24 211.297 500.24ZM311.774 550.46H253.994C256.514 560.18 265.334 564.5 277.394 564.5C289.274 564.5 299.534 561.26 305.834 555.14H306.914V581.96C300.254 586.28 288.914 588.8 275.774 588.8C245.714 588.8 224.834 570.44 224.834 544.52C224.834 518.6 243.194 500.24 269.114 500.24C295.394 500.24 311.774 515.9 311.774 540.92V550.46ZM270.014 524.54C262.814 524.54 255.974 528.5 253.994 536.42H286.034C284.234 528.32 278.114 524.54 270.014 524.54ZM111.22 626.24C134.8 626.24 152.08 644.96 152.08 670.52C152.08 696.08 134.8 714.8 111.22 714.8C102.76 714.8 95.92 712.28 90.88 707.6H90.52V747.2H61.72V628.04H85.48L86.56 638.3H86.92C91.78 630.56 100.06 626.24 111.22 626.24ZM106.36 689.24C116.26 689.24 122.92 681.68 122.92 670.52C122.92 659.36 116.26 651.8 106.36 651.8C96.46 651.8 89.8 659.36 89.8 670.52C89.8 681.68 96.46 689.24 106.36 689.24ZM247.117 713H223.357L222.277 702.74H221.917C217.057 710.48 208.777 714.8 197.617 714.8C174.037 714.8 156.757 696.08 156.757 670.52C156.757 644.96 174.037 626.24 197.617 626.24C208.777 626.24 217.057 630.56 221.917 638.3H222.277L223.357 628.04H247.117V713ZM202.477 689.24C212.377 689.24 219.037 681.68 219.037 670.52C219.037 659.36 212.377 651.8 202.477 651.8C192.577 651.8 185.917 659.36 185.917 670.52C185.917 681.68 192.577 689.24 202.477 689.24ZM346.834 628.04V706.16C346.834 732.44 328.294 749 298.594 749C284.734 749 272.854 745.94 265.114 741.08V712.28H266.194C272.134 718.94 283.294 723.44 294.994 723.44C309.214 723.44 317.314 717.14 318.034 705.8H317.674C312.634 710.48 305.794 713 297.334 713C273.754 713 256.474 695.18 256.474 669.62C256.474 644.06 273.754 626.24 297.334 626.24C308.494 626.24 316.774 630.56 321.634 638.3H321.994L323.074 628.04H346.834ZM302.194 687.44C312.094 687.44 318.754 680.78 318.754 669.62C318.754 658.46 312.094 651.8 302.194 651.8C292.294 651.8 285.634 658.46 285.634 669.62C285.634 680.78 292.294 687.44 302.194 687.44ZM401.912 626.24C428.732 626.24 447.632 644.6 447.632 670.52C447.632 696.44 428.732 714.8 401.912 714.8C375.092 714.8 356.192 696.44 356.192 670.52C356.192 644.6 375.092 626.24 401.912 626.24ZM401.912 651.8C392.012 651.8 385.352 659.36 385.352 670.52C385.352 681.68 392.012 689.24 401.912 689.24C411.812 689.24 418.472 681.68 418.472 670.52C418.472 659.36 411.812 651.8 401.912 651.8Z" fill="white" fill-opacity="0.33"/>
<defs>
<filter id="filter0_d_238_700" x="0" y="0" width="582" height="926" filterUnits="userSpaceOnUse" color-interpolation-filters="sRGB">
<feFlood flood-opacity="0" result="BackgroundImageFix"/>
<feColorMatrix in="SourceAlpha" type="matrix" values="0 0 0 0 0 0 0 0 0 0 0 0 0 0 0 0 0 0 127 0" result="hardAlpha"/>
<feOffset dy="2"/>
<feComposite in2="hardAlpha" operator="out"/>
<feColorMatrix type="matrix" values="0 0 0 0 0 0 0 0 0 0 0 0 0 0 0 0 0 0 0.8 0"/>
<feBlend mode="normal" in2="BackgroundImageFix" result="effect1_dropShadow_238_700"/>
<feBlend mode="normal" in="SourceGraphic" in2="effect1_dropShadow_238_700" result="shape"/>
</filter>
<linearGradient id="paint0_linear_238_700" x1="506.397" y1="104.132" x2="393.706" y2="191.147" gradientUnits="userSpaceOnUse">
<stop stop-color="#D9D9D9"/>
<stop offset="0.347245" stop-color="#B0B0B0"/>
<stop offset="0.524405" stop-color="#CECECE"/>
<stop offset="0.776262" stop-color="#BCBCBC"/>
<stop offset="1" stop-color="#A2A2A2"/>
</linearGradient>
</defs>
</svg>
