<svg width="24" height="24" viewBox="0 0 24 24" fill="none" xmlns="http://www.w3.org/2000/svg">
<path fill-rule="evenodd" clip-rule="evenodd" d="M11.5342 2.13701C11.7172 1.95401 12.0842 1.95401 12.2672 2.13701C15.2892 4.88501 20.1432 4.88501 20.1432 4.88501C20.3262 4.88501 20.4182 4.97701 20.5092 5.06801C20.6012 5.16001 20.6012 5.25101 20.6012 5.43501C20.6012 11.937 18.3112 16.058 16.3882 18.348C14.2822 20.912 12.1752 21.92 12.0842 21.92C12.0842 22.011 11.9012 22.011 11.9012 22.011C11.9012 22.011 11.8092 21.92 11.7172 21.92C11.6262 21.828 3.2002 17.798 3.2002 5.43501C3.2002 5.25101 3.2002 5.16001 3.2922 5.06801C3.3832 4.97701 3.5662 4.88501 3.6582 4.88501C3.7492 4.88501 8.6032 4.97701 11.5342 2.13701ZM11.9012 3.14501C9.2452 5.43501 5.5802 5.80001 4.2082 5.89301C4.3902 16.15 10.6182 20.088 11.9002 20.82C13.1822 20.087 19.4102 16.057 19.5922 5.89201C18.2192 5.80001 14.5562 5.43401 11.9002 3.14401L11.9012 3.14501ZM11.9012 5.80101C13.3662 5.80101 14.6482 6.99101 14.6482 8.36501V8.91501C15.3812 9.18901 15.9302 9.92201 15.9302 10.746V14.318C15.9302 15.417 15.0142 16.333 13.9162 16.333H9.8862C8.7862 16.333 7.87119 15.417 7.87119 14.318V10.746C7.87119 9.92201 8.4202 9.18901 9.1532 8.91501V8.36501C9.1532 6.90001 10.4352 5.80101 11.9012 5.80101ZM13.9162 9.73901H9.8862C9.3362 9.73901 8.8782 10.197 8.8782 10.746V14.318C8.8782 14.868 9.3362 15.325 9.8862 15.325H13.9162C14.4652 15.325 14.9232 14.867 14.9232 14.318V10.746C14.9232 10.196 14.4652 9.73901 13.9162 9.73901ZM11.9002 11.57C12.4492 11.57 12.9072 12.028 12.9072 12.578C12.9072 13.128 12.4492 13.586 11.9002 13.586C11.3502 13.586 10.8922 13.128 10.8922 12.578C10.8922 12.028 11.3502 11.57 11.9002 11.57ZM11.9002 6.80801C10.9842 6.80801 10.1602 7.54101 10.1602 8.36501V8.73101H13.6402V8.36501C13.6402 7.44901 12.8152 6.80801 11.9002 6.80801Z" fill="#03FF94"/>
</svg>
