<svg width="24" height="24" viewBox="0 0 24 24" fill="none" xmlns="http://www.w3.org/2000/svg">
<path fill-rule="evenodd" clip-rule="evenodd" d="M17.51 3.20001C18.544 3.20001 19.355 4.01001 19.355 5.04601V18.996C19.355 20.032 18.545 20.842 17.509 20.842H6.246C6.00292 20.8447 5.76176 20.7988 5.53665 20.707C5.31154 20.6153 5.10701 20.4795 4.93508 20.3076C4.76314 20.1358 4.62724 19.9314 4.53536 19.7063C4.44348 19.4812 4.39746 19.2401 4.4 18.997V7.33701C4.40009 7.18232 4.45992 7.03365 4.567 6.92201L7.955 3.38501C8.01097 3.32657 8.07818 3.28005 8.1526 3.24826C8.22701 3.21647 8.30708 3.20006 8.388 3.20001H17.51ZM17.51 4.40001H9.585V7.78601C9.585 7.94514 9.52179 8.09775 9.40927 8.21028C9.29674 8.3228 9.14413 8.38601 8.985 8.38601H5.6V18.996C5.6 19.365 5.878 19.642 6.246 19.642H17.509C17.5943 19.6441 17.6791 19.6288 17.7584 19.5971C17.8376 19.5654 17.9096 19.518 17.97 19.4577C18.0304 19.3974 18.0779 19.3255 18.1097 19.2463C18.1415 19.1671 18.1569 19.0823 18.155 18.997V5.04601C18.1571 4.96062 18.1418 4.87569 18.11 4.79639C18.0783 4.71708 18.0308 4.64505 17.9704 4.58465C17.91 4.52424 17.8379 4.47674 17.7586 4.445C17.6793 4.41326 17.5954 4.39796 17.51 4.40001ZM14.292 10.057C14.4035 9.94337 14.5556 9.87868 14.7148 9.87718C14.8741 9.87568 15.0274 9.93749 15.141 10.049C15.2546 10.1605 15.3193 10.3126 15.3208 10.4719C15.3223 10.6311 15.2605 10.7844 15.149 10.898L11.271 14.845C11.1585 14.9584 11.0056 15.0225 10.8458 15.0232C10.6861 15.024 10.5326 14.9613 10.419 14.849L8.61 13.04C8.55105 12.9851 8.50377 12.9188 8.47098 12.8452C8.43818 12.7716 8.42055 12.6922 8.41913 12.6116C8.41771 12.5311 8.43253 12.451 8.4627 12.3763C8.49288 12.3016 8.5378 12.2338 8.59477 12.1768C8.65175 12.1198 8.71961 12.0749 8.79432 12.0447C8.86903 12.0145 8.94906 11.9997 9.02962 12.0011C9.11018 12.0026 9.18963 12.0202 9.26323 12.053C9.33683 12.0858 9.40307 12.1331 9.458 12.192L10.838 13.572L14.292 10.057ZM8.386 4.67001L5.976 7.18601H8.386V4.67001Z" fill="#03FF94"/>
</svg>
